<?xml version="1.0" encoding="UTF-8" standalone="no"?>
<svg
   xmlns:dc="http://purl.org/dc/elements/1.1/"
   xmlns:cc="http://creativecommons.org/ns#"
   xmlns:rdf="http://www.w3.org/1999/02/22-rdf-syntax-ns#"
   xmlns:svg="http://www.w3.org/2000/svg"
   xmlns="http://www.w3.org/2000/svg"
   xmlns:sodipodi="http://sodipodi.sourceforge.net/DTD/sodipodi-0.dtd"
   xmlns:inkscape="http://www.inkscape.org/namespaces/inkscape"
   width="168"
   height="168"
   viewBox="0 0 168 168"
   fill="none"
   version="1.1"
   id="svg158"
   sodipodi:docname="Frame 1.svg"
   inkscape:version="1.0.2 (e86c8708, 2021-01-15)">
  <metadata
     id="metadata164">
    <rdf:RDF>
      <cc:Work
         rdf:about="">
        <dc:format>image/svg+xml</dc:format>
        <dc:type
           rdf:resource="http://purl.org/dc/dcmitype/StillImage" />
        <dc:title></dc:title>
      </cc:Work>
    </rdf:RDF>
  </metadata>
  <defs
     id="defs162" />
  <sodipodi:namedview
     pagecolor="#ffffff"
     bordercolor="#666666"
     borderopacity="1"
     objecttolerance="10"
     gridtolerance="10"
     guidetolerance="10"
     inkscape:pageopacity="0"
     inkscape:pageshadow="2"
     inkscape:window-width="1440"
     inkscape:window-height="900"
     id="namedview160"
     showgrid="false"
     inkscape:pagecheckerboard="true"
     inkscape:zoom="3.3988095"
     inkscape:cx="102.24168"
     inkscape:cy="94.591944"
     inkscape:window-x="0"
     inkscape:window-y="0"
     inkscape:window-maximized="0"
     inkscape:current-layer="svg158" />
  <rect
     width="168"
     height="168"
     rx="33"
     fill="#252A3E"
     id="rect108" />
  <rect
     x="7"
     y="31"
     width="55"
     height="13"
     rx="6.5"
     fill="#EBC6C6"
     id="rect110" />
  <rect
     x="7"
     y="31"
     width="55"
     height="13"
     rx="6.5"
     fill="#EBC6C6"
     id="rect112" />
  <rect
     x="79"
     y="31"
     width="34"
     height="13"
     rx="6.5"
     fill="#EBC6C6"
     id="rect114" />
  <rect
     x="79"
     y="31"
     width="34"
     height="13"
     rx="6.5"
     fill="#6E91EA"
     id="rect116" />
  <rect
     x="117"
     y="31"
     width="42"
     height="13"
     rx="6.5"
     fill="#EBC6C6"
     id="rect118" />
  <rect
     x="117"
     y="31"
     width="42"
     height="13"
     rx="6.5"
     fill="#B9EBB1"
     id="rect120" />
  <rect
     x="117"
     y="61"
     width="42"
     height="13"
     rx="6.5"
     fill="#EBC6C6"
     id="rect122" />
  <rect
     x="117"
     y="61"
     width="42"
     height="13"
     rx="6.5"
     fill="#B9EBB1"
     id="rect124" />
  <rect
     x="117"
     y="94"
     width="42"
     height="13"
     rx="6.5"
     fill="#EBC6C6"
     id="rect126" />
  <rect
     x="117"
     y="94"
     width="42"
     height="13"
     rx="6.5"
     fill="#B9EBB1"
     id="rect128" />
  <rect
     x="117"
     y="124"
     width="42"
     height="13"
     rx="6.5"
     fill="#EBC6C6"
     id="rect130" />
  <rect
     x="117"
     y="124"
     width="42"
     height="13"
     rx="6.5"
     fill="#B9EBB1"
     id="rect132" />
  <rect
     x="79"
     y="61"
     width="34"
     height="13"
     rx="6.5"
     fill="#EBC6C6"
     id="rect134" />
  <rect
     x="79"
     y="61"
     width="34"
     height="13"
     rx="6.5"
     fill="#6E91EA"
     id="rect136" />
  <rect
     x="79"
     y="94"
     width="34"
     height="13"
     rx="6.5"
     fill="#EBC6C6"
     id="rect138" />
  <rect
     x="79"
     y="94"
     width="34"
     height="13"
     rx="6.5"
     fill="#6E91EA"
     id="rect140" />
  <rect
     x="79"
     y="124"
     width="34"
     height="13"
     rx="6.5"
     fill="#EBC6C6"
     id="rect142" />
  <rect
     x="79"
     y="124"
     width="34"
     height="13"
     rx="6.5"
     fill="#6E91EA"
     id="rect144" />
  <rect
     x="7"
     y="61"
     width="41"
     height="13"
     rx="6.5"
     fill="#EBC6C6"
     id="rect146" />
  <rect
     x="7"
     y="61"
     width="41"
     height="13"
     rx="6.5"
     fill="#EBC6C6"
     id="rect148" />
  <rect
     x="7"
     y="94"
     width="46"
     height="13"
     rx="6.5"
     fill="#EBC6C6"
     id="rect150" />
  <rect
     x="7"
     y="94"
     width="46"
     height="13"
     rx="6.5"
     fill="#EBC6C6"
     id="rect152" />
  <rect
     x="7"
     y="124"
     width="67"
     height="13"
     rx="6.5"
     fill="#EBC6C6"
     id="rect154" />
  <rect
     x="7"
     y="124"
     width="67"
     height="13"
     rx="6.5"
     fill="#EBC6C6"
     id="rect156" />
</svg>
